<?xml version="1.0" encoding="UTF-8"?>
<svg width="1200" height="1600" viewBox="0 0 1200 1600" fill="none" xmlns="http://www.w3.org/2000/svg">
  <defs>
    <linearGradient id="bg" x1="0" y1="0" x2="1200" y2="1600" gradientUnits="userSpaceOnUse">
      <stop stop-color="#10251f"/>
      <stop offset="1" stop-color="#4f6f47"/>
    </linearGradient>
    <filter id="shadow" x="-20%" y="-20%" width="140%" height="140%">
      <feDropShadow dx="0" dy="18" stdDeviation="28" flood-color="#000000" flood-opacity="0.24"/>
    </filter>
  </defs>
  <rect width="1200" height="1600" fill="url(#bg)"/>
  <rect x="64" y="64" width="1072" height="1472" rx="50" fill="#ffffff" fill-opacity="0.055" stroke="#f2f2d8" stroke-opacity="0.22" stroke-width="4"/>
  
  <path d="M740 240C860 220 970 250 1080 330" stroke="#f2f2d8" stroke-width="16" stroke-linecap="round" stroke-opacity="0.12" fill="none"/>
  <path d="M725 310C890 286 1010 340 1115 452" stroke="#e0b95c" stroke-width="8" stroke-linecap="round" stroke-opacity="0.2" fill="none"/>
  <circle cx="922" cy="702" r="190" fill="#e0b95c" fill-opacity="0.1"/>
  <circle cx="1015" cy="214" r="205" fill="#e0b95c" fill-opacity="0.12"/>
  <circle cx="180" cy="1260" r="190" fill="#f2f2d8" fill-opacity="0.12"/>
  <path d="M96 190H390" stroke="#e0b95c" stroke-width="18" stroke-linecap="round"/>
  <path d="M96 232H285" stroke="#f2f2d8" stroke-width="10" stroke-linecap="round" stroke-opacity="0.55"/>
  <path d="M96 292H520" stroke="#10251f" stroke-width="84" stroke-linecap="round" stroke-opacity="0.18"/>
  <g filter="url(#shadow)">

  <rect x="600" y="820" width="390" height="430" rx="42" fill="#f2f2d8" fill-opacity="0.16"/>
  <path d="M625 1180C750 980 842 980 965 1180" stroke="#e0b95c" stroke-width="28" stroke-linecap="round" fill="none"/>
  <circle cx="910" cy="855" r="82" fill="#e0b95c" fill-opacity="0.28"/>
  </g>
  <text x="96" y="348" font-size="56" font-weight="800" fill="#fbf7e7" stroke="#10251f" stroke-width="2" paint-order="stroke" font-family="Tahoma, Noto Sans Thai, sans-serif">หาญท้าชะตาฟ้า</text><text x="96" y="422" font-size="56" font-weight="800" fill="#fbf7e7" stroke="#10251f" stroke-width="2" paint-order="stroke" font-family="Tahoma, Noto Sans Thai, sans-serif">ปริศนายุทธจักร</text><text x="96" y="496" font-size="56" font-weight="800" fill="#fbf7e7" stroke="#10251f" stroke-width="2" paint-order="stroke" font-family="Tahoma, Noto Sans Thai, sans-serif">10</text>
  <text x="96" y="665" font-size="28" font-weight="600" fill="#fbf7e7" fill-opacity="0.78" font-family="Tahoma, Noto Sans Thai, sans-serif">read and voice</text>
  <path d="M96 1290H470" stroke="#e0b95c" stroke-width="8" stroke-linecap="round" stroke-opacity="0.78"/>
  <text x="96" y="1342" font-size="30" font-weight="800" fill="#fbf7e7" font-family="Tahoma, Noto Sans Thai, sans-serif">read and voice</text>
  <text x="96" y="1400" font-size="22" font-weight="700" fill="#fbf7e7" fill-opacity="0.64" font-family="Tahoma, Noto Sans Thai, sans-serif">นิยายลึกลับ</text>
</svg>