<?xml version="1.0" encoding="UTF-8"?>
<svg width="1200" height="1600" viewBox="0 0 1200 1600" fill="none" xmlns="http://www.w3.org/2000/svg">
  <defs>
    <linearGradient id="bg" x1="0" y1="0" x2="1200" y2="1600" gradientUnits="userSpaceOnUse">
      <stop stop-color="#10251f"/>
      <stop offset="1" stop-color="#4f6f47"/>
    </linearGradient>
    <filter id="shadow" x="-20%" y="-20%" width="140%" height="140%">
      <feDropShadow dx="0" dy="18" stdDeviation="28" flood-color="#000000" flood-opacity="0.24"/>
    </filter>
  </defs>
  <rect width="1200" height="1600" fill="url(#bg)"/>
  <rect x="64" y="64" width="1072" height="1472" rx="50" fill="#ffffff" fill-opacity="0.055" stroke="#f2f2d8" stroke-opacity="0.22" stroke-width="4"/>
  
  <path d="M740 240C860 220 970 250 1080 330" stroke="#f2f2d8" stroke-width="16" stroke-linecap="round" stroke-opacity="0.12" fill="none"/>
  <path d="M725 310C890 286 1010 340 1115 452" stroke="#e0b95c" stroke-width="8" stroke-linecap="round" stroke-opacity="0.2" fill="none"/>
  <circle cx="906" cy="726" r="190" fill="#e0b95c" fill-opacity="0.1"/>
  <circle cx="1015" cy="214" r="205" fill="#e0b95c" fill-opacity="0.12"/>
  <circle cx="180" cy="1260" r="190" fill="#f2f2d8" fill-opacity="0.12"/>
  <path d="M96 190H390" stroke="#e0b95c" stroke-width="18" stroke-linecap="round"/>
  <path d="M96 232H285" stroke="#f2f2d8" stroke-width="10" stroke-linecap="round" stroke-opacity="0.55"/>
  <path d="M96 292H520" stroke="#10251f" stroke-width="84" stroke-linecap="round" stroke-opacity="0.18"/>
  <g filter="url(#shadow)">

  <rect x="585" y="850" width="460" height="310" rx="28" fill="#f2f2d8" fill-opacity="0.14" stroke="#e0b95c" stroke-width="8"/>
  <path d="M690 1005L635 960L690 915M938 915L994 960L938 1005" stroke="#e0b95c" stroke-width="22" stroke-linecap="round" stroke-linejoin="round"/>
  <path d="M842 895L790 1025" stroke="#f2f2d8" stroke-width="18" stroke-linecap="round"/>
  <circle cx="640" cy="1230" r="18" fill="#e0b95c"/><circle cx="815" cy="1230" r="18" fill="#e0b95c"/><circle cx="990" cy="1230" r="18" fill="#e0b95c"/>
  <path d="M640 1230H990M815 1160V1230" stroke="#9fb99b" stroke-width="10" stroke-opacity="0.62"/>
  </g>
  <text x="96" y="348" font-size="56" font-weight="800" fill="#fbf7e7" stroke="#10251f" stroke-width="2" paint-order="stroke" font-family="Tahoma, Noto Sans Thai, sans-serif">สุขภาพคู่</text><text x="96" y="422" font-size="56" font-weight="800" fill="#fbf7e7" stroke="#10251f" stroke-width="2" paint-order="stroke" font-family="Tahoma, Noto Sans Thai, sans-serif">มือเริ่มต</text><text x="96" y="496" font-size="56" font-weight="800" fill="#fbf7e7" stroke="#10251f" stroke-width="2" paint-order="stroke" font-family="Tahoma, Noto Sans Thai, sans-serif">้น</text>
  <text x="96" y="665" font-size="28" font-weight="600" fill="#fbf7e7" fill-opacity="0.78" font-family="Tahoma, Noto Sans Thai, sans-serif">ฉบับอ่านง่ายสำหรับคนที่อยากเริ่มต้นอย่างมั่นใจ</text>
  <path d="M96 1290H470" stroke="#e0b95c" stroke-width="8" stroke-linecap="round" stroke-opacity="0.78"/>
  <text x="96" y="1342" font-size="30" font-weight="800" fill="#fbf7e7" font-family="Tahoma, Noto Sans Thai, sans-serif">รสลิน ภัทรา</text>
  <text x="96" y="1400" font-size="22" font-weight="700" fill="#fbf7e7" fill-opacity="0.64" font-family="Tahoma, Noto Sans Thai, sans-serif">Digital</text>
</svg>