<?xml version="1.0" encoding="UTF-8"?>
<svg width="1200" height="1600" viewBox="0 0 1200 1600" fill="none" xmlns="http://www.w3.org/2000/svg">
  <defs>
    <linearGradient id="bg" x1="0" y1="0" x2="1200" y2="1600" gradientUnits="userSpaceOnUse">
      <stop stop-color="#061d2a"/>
      <stop offset="1" stop-color="#246875"/>
    </linearGradient>
    <filter id="shadow" x="-20%" y="-20%" width="140%" height="140%">
      <feDropShadow dx="0" dy="18" stdDeviation="28" flood-color="#000000" flood-opacity="0.24"/>
    </filter>
  </defs>
  <rect width="1200" height="1600" fill="url(#bg)"/>
  <rect x="64" y="64" width="1072" height="1472" rx="50" fill="#ffffff" fill-opacity="0.055" stroke="#e9fbff" stroke-opacity="0.22" stroke-width="4"/>
  
  <path d="M720 190C880 260 1010 380 1110 550V760C1020 600 890 465 720 360V190Z" fill="#f2a65e" fill-opacity="0.1"/>
  <path d="M640 1315C805 1210 965 1160 1130 1175V1410C950 1375 780 1405 640 1515V1315Z" fill="#e9fbff" fill-opacity="0.08"/>
  <circle cx="1021" cy="921" r="180" fill="#e9fbff" fill-opacity="0.1"/>
  <circle cx="1015" cy="214" r="205" fill="#f2a65e" fill-opacity="0.12"/>
  <circle cx="180" cy="1260" r="190" fill="#e9fbff" fill-opacity="0.12"/>
  <path d="M96 190H390" stroke="#f2a65e" stroke-width="18" stroke-linecap="round"/>
  <path d="M96 232H285" stroke="#e9fbff" stroke-width="10" stroke-linecap="round" stroke-opacity="0.55"/>
  <path d="M96 292H520" stroke="#061d2a" stroke-width="84" stroke-linecap="round" stroke-opacity="0.18"/>
  <g filter="url(#shadow)">

  <path d="M520 1020C615 958 705 958 800 1020C895 1082 985 1082 1080 1020V1218H520V1020Z" fill="#f2a65e" fill-opacity="0.84"/>
  <path d="M520 1112C615 1050 705 1050 800 1112C895 1174 985 1174 1080 1112" fill="none" stroke="#e9fbff" stroke-width="20" stroke-linecap="round" stroke-opacity="0.88"/>
  <circle cx="940" cy="840" r="86" fill="#e9fbff" fill-opacity="0.18"/>
  <path d="M710 835C760 784 840 775 908 818" stroke="#91c2c9" stroke-width="18" stroke-linecap="round" stroke-opacity="0.7"/>
  </g>
  <text x="96" y="348" font-size="62" font-weight="800" fill="#f4fdff" stroke="#061d2a" stroke-width="2" paint-order="stroke" font-family="Tahoma, Noto Sans Thai, sans-serif">ชายฝั่งไม</text><text x="96" y="428" font-size="62" font-weight="800" fill="#f4fdff" stroke="#061d2a" stroke-width="2" paint-order="stroke" font-family="Tahoma, Noto Sans Thai, sans-serif">่มีเงา</text>
  <text x="96" y="665" font-size="28" font-weight="600" fill="#f4fdff" fill-opacity="0.78" font-family="Tahoma, Noto Sans Thai, sans-serif">ระทึกขวัญเหนือธรรมชาติริมทะเลหมอก</text>
  <path d="M96 1290H470" stroke="#f2a65e" stroke-width="8" stroke-linecap="round" stroke-opacity="0.78"/>
  <text x="96" y="1342" font-size="30" font-weight="800" fill="#f4fdff" font-family="Tahoma, Noto Sans Thai, sans-serif">กวินตรา เมธา</text>
  <text x="96" y="1400" font-size="22" font-weight="700" fill="#f4fdff" fill-opacity="0.64" font-family="Tahoma, Noto Sans Thai, sans-serif">นิยายลึกลับ</text>
</svg>